<svg width="78" height="88" viewBox="0 0 78 88" fill="none" xmlns="http://www.w3.org/2000/svg">
<path d="M23.552 60.32C20.608 60.32 17.792 59.808 15.104 58.784C12.4587 57.7173 10.112 56.1813 8.064 54.176C6.016 52.128 4.39467 49.6747 3.2 46.816C2.048 43.9147 1.472 40.608 1.472 36.896C1.472 33.696 2.06933 30.7307 3.264 28C4.45867 25.2693 6.10133 22.88 8.192 20.832C10.3253 18.7413 12.8 17.12 15.616 15.968C18.432 14.816 21.4827 14.24 24.768 14.24C28.864 14.24 32.576 15.136 35.904 16.928C39.232 18.6773 41.7067 21.088 43.328 24.16L34.048 31.264C33.152 29.472 31.808 28.0427 30.016 26.976C28.224 25.8667 26.3253 25.312 24.32 25.312C22.3573 25.312 20.608 25.824 19.072 26.848C17.536 27.872 16.32 29.3013 15.424 31.136C14.5707 32.928 14.144 34.9973 14.144 37.344C14.144 40.8853 15.104 43.7653 17.024 45.984C18.9867 48.16 21.5253 49.248 24.64 49.248C28.1813 49.248 31.3813 47.7547 34.24 44.768H26.368V35.808H45.056V60H34.752V56.224C31.5093 58.9547 27.776 60.32 23.552 60.32Z" fill="black"/>
<path d="M72.56 69.552C72.56 72.2826 71.8133 74.5013 70.32 76.208C68.8693 77.9146 66.9067 79.1733 64.432 79.984C61.9573 80.7946 59.2267 81.2 56.24 81.2H33.904V35.7599H60.272C62.4053 35.7599 64.24 36.3359 65.776 37.4879C67.3547 38.5973 68.5493 40.048 69.36 41.84C70.2133 43.632 70.64 45.488 70.64 47.408C70.64 49.4986 70.0853 51.5253 68.976 53.4879C67.9093 55.4506 66.288 56.9226 64.112 57.9039C66.7147 58.672 68.7627 60.0159 70.256 61.9359C71.792 63.856 72.56 66.3946 72.56 69.552ZM46.384 46.3839V53.3599H54.896C55.7493 53.3599 56.5173 53.1253 57.2 52.656C57.9253 52.1866 58.288 51.248 58.288 49.84C58.288 48.6026 57.9893 47.7279 57.392 47.216C56.7947 46.6613 56.0907 46.3839 55.28 46.3839H46.384ZM59.888 66.992C59.888 65.8826 59.5893 64.9653 58.992 64.24C58.3947 63.4719 57.6267 63.0879 56.688 63.0879H46.384V70.704H56.24C57.264 70.704 58.1173 70.384 58.8 69.744C59.5253 69.104 59.888 68.1866 59.888 66.992Z" fill="black"/>
</svg>
